<?xml version="1.0" encoding="utf-8"?>
<!-- Generator: Adobe Illustrator 24.1.0, SVG Export Plug-In . SVG Version: 6.00 Build 0)  -->
<svg version="1.1" id="Layer_1" xmlns="http://www.w3.org/2000/svg" xmlns:xlink="http://www.w3.org/1999/xlink" x="0px" y="0px"
	 viewBox="0 0 1700 468.4" style="enable-background:new 0 0 1700 468.4;" xml:space="preserve">
<style type="text/css">
	.st0{fill:#0BD35C;}
	.st1{fill:#999999;}
</style>
<path class="st0" d="M414.3,128.9c-0.6-3.9-1.9-7.7-3.8-11.2c-0.1-0.2-0.2-0.4-0.3-0.6c0,0,0,0,0,0c-0.2-0.3-0.4-0.6-0.6-0.9
	c0,0,0,0,0,0c-2-3.3-4.6-6.1-7.6-8.5l-8.6,4.9l-15.6,9l-2.8,1.6v0l-9.4,5.4l-50.1,28.9l-1.4,0.8h0l-9.8,5.7c-1.3-1-2.7-2-4.1-2.8
	l-7.6-4.4h0l-0.2-0.1L224,117.2c-10.3-5.9-23.1-5.9-33.4,0l-68.5,39.5l-0.2,0.1c1,0.4,2,0.9,2.9,1.4c0.1,0,0.1,0.1,0.2,0.1
	l21.7,12.5l56.2-32.5c2.7-1.6,6.1-1.6,8.9,0l56.2,32.5l9.6,5.5v0l2.6,1.5l-2.8,1.6h0l-9.4,5.4L219.6,213l-12.3,7.1l-12.3-7.1
	l-48.4-27.9l-9.4-5.4h0l-2.8-1.6l-15.6-9l-8.6-4.9l-9.8-5.7h0l-1.4-0.8L49,128.7l-9.4-5.4v0h0l-2.8-1.6l2.6-1.5v0l9.6-5.5
	l153.9-88.8c2.7-1.6,6.1-1.6,8.9,0l153.9,88.8l21.7-12.5c0.9-0.5,1.9-1,2.9-1.4c0.1,0,0.1,0,0.2-0.1l-0.2-0.1L224,4.5
	c-10.3-5.9-23.1-6-33.4,0L24.5,100.4l-0.2,0.1l-7.6,4.4c-1.4,0.8-2.8,1.7-4.1,2.8c-3,2.4-5.7,5.3-7.7,8.6c-0.2,0.3-0.4,0.5-0.5,0.8
	c-0.1,0.2-0.3,0.5-0.4,0.7c-1.9,3.4-3.1,7.2-3.7,11l8.6,5l15.6,9l2.8,1.6l0,0l9.4,5.4l50.1,28.9l1.4,0.8l9.8,5.7
	c-0.2,1.6-0.4,3.3-0.4,4.9v88.1c0,11.9,6.4,23,16.7,28.9l68.5,39.5l0.2,0.1c-0.2-1.1-0.2-2.3-0.2-3.4v-25l-56.2-32.5
	c-2.7-1.6-4.4-4.5-4.4-7.7v-79l2.8,1.6l9.4,5.4l48.4,27.9h0l12.3,7.1v102.1v94.8l-2.6-1.5l-9.6-5.6L29,342.3
	c-2.7-1.6-4.4-4.5-4.4-7.7V157L2.8,144.5c-1-0.6-1.9-1.2-2.8-1.9v192.1c0,11.9,6.4,23,16.7,28.9l166.1,95.9l0.2,0.1l7.6,4.4
	c1.4,0.8,2.9,1.5,4.4,2.1c3.7,1.5,7.6,2.3,11.6,2.3c0.2,0,0.4,0,0.6,0s0.4,0,0.6,0c4-0.1,7.9-0.9,11.6-2.3v-9.9v-18v-84.9
	c1.5-0.6,3-1.3,4.4-2.1l7.6-4.4l0.2-0.1l68.4-39.5c10.3-5.9,16.7-17,16.7-28.9v-79.3c0,0,0,0,0,0c-0.4,0.3-0.7,0.5-1.1,0.8
	c-0.2,0.1-0.4,0.3-0.6,0.4c-0.4,0.2-0.7,0.5-1.1,0.7h0l-21.7,12.5v64.9c0,3.2-1.7,6.1-4.4,7.7l-56.2,32.5l-9.6,5.6l-2.6,1.5v-84.2
	l12.3-7.1l48.4-27.9l9.4-5.4l2.8-1.6l15.2-8.8c0.1,0,0.1-0.1,0.2-0.1c0,0,0.1,0,0.1-0.1l0.2-0.1l0.2-0.1l8.3-4.8l9.8-5.7l1.4-0.8h0
	l50.1-28.9l9.4-5.4l2.8-1.6v191.8c0,3.2-1.7,6.1-4.5,7.7l-153.8,88.8v25c0,0.3,0,0.6,0,0.9c0,0.2,0,0.4,0,0.7c0,0.6-0.1,1.2-0.2,1.8
	l0.2-0.1l166.1-95.9c10.3-5.9,16.7-17,16.7-28.9V133.8C414.7,132.1,414.5,130.5,414.3,128.9z"/>
<g>
	<path class="st1" d="M622.6,138v22.8h-92.3v66.2H609v22.8h-78.8v82.8h-28.1V138H622.6z"/>
	<path class="st1" d="M636.4,332.6V194.9h14.8c2.8,0,4.7,0.5,5.8,1.5s1.7,2.8,2.1,5.4l1.6,20.1c4.3-9.1,9.7-16.3,16-21.6
		c6.3-5.2,13.9-7.9,22.8-7.9c3,0,5.8,0.3,8.5,0.9c2.7,0.6,5,1.6,7,3l-1.8,19.2c-0.5,2.4-2,3.7-4.3,3.7c-1.3,0-3.1-0.3-5.6-0.8
		c-2.5-0.5-5.2-0.8-8.2-0.8c-4.2,0-8,0.6-11.3,1.9c-3.3,1.3-6.3,3.1-8.9,5.6c-2.6,2.4-5,5.4-7,9c-2,3.5-3.9,7.6-5.6,12.1v86.4H636.4
		z"/>
	<path class="st1" d="M785.6,192.8c8.3,0,16,1.4,23.1,4.1c7,2.8,13.2,6.8,18.3,12c5.2,5.2,9.2,11.7,12.1,19.3
		c2.9,7.6,4.3,16.4,4.3,26.2c0,4-0.4,6.6-1.3,8c-0.9,1.4-2.5,2-4.8,2h-90.8c0.3,8.4,1.5,15.7,3.6,22c2.1,6.2,5,11.4,8.7,15.5
		c3.7,4.1,8.1,7.2,13.2,9.2c5.1,2,10.9,3.1,17.2,3.1c6,0,11.1-0.7,15.4-2c4.3-1.4,8-2.8,11.1-4.5c3.1-1.6,5.8-3.1,7.9-4.5
		c2.2-1.4,4.1-2,5.7-2c2.2,0,3.8,0.8,4.7,2.4l7.3,9.4c-3.2,3.8-6.8,7-11,9.7c-4.2,2.7-8.6,4.9-13.4,6.6c-4.8,1.8-9.7,3.1-14.8,3.9
		c-5.1,0.8-10.1,1.2-15.1,1.2c-9.5,0-18.3-1.6-26.4-4.8c-8.1-3.2-15.1-7.9-20.9-14.1c-5.9-6.2-10.5-13.9-13.8-23.1
		s-4.9-19.7-4.9-31.7c0-9.6,1.5-18.5,4.5-26.8c3-8.3,7.3-15.5,12.8-21.6c5.6-6.1,12.3-10.9,20.3-14.4
		C766.5,194.5,775.5,192.8,785.6,192.8z M786,211.6c-11.3,0-20.2,3.3-26.6,9.8c-6.5,6.6-10.5,15.6-12.1,27.2h73.1
		c0-5.4-0.8-10.4-2.3-14.9c-1.5-4.5-3.8-8.4-6.7-11.7c-2.9-3.3-6.5-5.8-10.8-7.7C796.2,212.5,791.4,211.6,786,211.6z"/>
	<path class="st1" d="M897.4,152.2c0,2.4-0.5,4.7-1.4,6.8c-1,2.1-2.3,4-3.9,5.6c-1.7,1.6-3.6,2.9-5.8,3.9c-2.2,1-4.5,1.4-7,1.4
		c-2.4,0-4.6-0.5-6.7-1.4c-2.1-0.9-4-2.2-5.6-3.9c-1.6-1.6-2.9-3.5-3.9-5.6c-0.9-2.1-1.4-4.4-1.4-6.8c0-2.4,0.5-4.8,1.4-7
		c0.9-2.2,2.2-4.1,3.9-5.8c1.6-1.6,3.5-2.9,5.6-3.9c2.1-1,4.4-1.4,6.7-1.4c2.4,0,4.8,0.5,7,1.4c2.2,1,4.2,2.2,5.8,3.9
		c1.7,1.6,3,3.5,3.9,5.8C897,147.5,897.4,149.8,897.4,152.2z M892.4,194.9v137.6h-25.8V194.9H892.4z"/>
	<path class="st1" d="M972.6,192.6c6,0,11.5,0.7,16.6,2c5.1,1.3,9.8,3.2,14.2,5.6h38v9.5c0,3.3-2,5.3-6,6.1l-15,2.2
		c2.8,5.8,4.2,12.1,4.2,19c0,6.8-1.3,12.9-3.9,18.3c-2.6,5.4-6.2,10.1-10.8,14c-4.6,3.9-10.1,6.9-16.5,9c-6.4,2.1-13.3,3.1-20.8,3.1
		c-6.3,0-12.2-0.7-17.6-2c-5.7,3.4-8.5,7.2-8.5,11.4c0,3.2,1.3,5.5,4,7.1c2.7,1.6,6.2,2.7,10.5,3.5c4.3,0.7,9.3,1.2,14.8,1.4
		s11.2,0.5,16.9,0.9c5.8,0.4,11.4,1.1,16.9,2.1c5.5,1,10.4,2.6,14.8,4.9c4.3,2.3,7.8,5.4,10.5,9.4c2.7,4,4,9.2,4,15.6
		c0,6-1.5,11.7-4.4,17.3c-2.9,5.6-7.2,10.5-12.7,14.8c-5.6,4.3-12.4,7.7-20.4,10.4c-8.1,2.6-17.1,3.9-27.3,3.9c-10.1,0-19-1-26.5-3
		c-7.5-2-13.8-4.7-18.8-8c-5-3.3-8.8-7.2-11.3-11.6c-2.5-4.4-3.7-9-3.7-13.8c0-6.8,2.1-12.5,6.3-17.2c4.2-4.7,10-8.3,17.3-10.9
		c-4.1-1.8-7.3-4.3-9.6-7.4c-2.4-3.1-3.5-7.3-3.5-12.4c0-2,0.4-4,1.1-6.2c0.7-2.1,1.8-4.2,3.3-6.4c1.5-2.1,3.3-4.1,5.6-6
		c2.2-1.9,4.8-3.6,7.7-5c-6.8-3.8-12.1-8.8-16-15.1c-3.9-6.3-5.8-13.6-5.8-22c0-6.8,1.3-12.9,3.9-18.3s6.3-10.1,10.9-14
		c4.7-3.9,10.2-6.9,16.6-9C957.8,193.7,964.9,192.6,972.6,192.6z M1015.1,339.8c0-3.3-0.9-5.9-2.8-7.9c-1.9-2-4.4-3.6-7.5-4.7
		c-3.2-1.2-6.8-2-11-2.4c-4.2-0.5-8.5-0.8-13.2-1.1c-4.6-0.3-9.3-0.5-14.2-0.8c-4.8-0.3-9.5-0.7-13.9-1.4c-4.9,2.4-8.9,5.2-11.9,8.7
		c-3.1,3.4-4.6,7.5-4.6,12.1c0,3,0.8,5.8,2.3,8.3c1.5,2.6,3.9,4.8,7,6.6c3.1,1.9,7.1,3.3,11.9,4.4c4.8,1.1,10.6,1.6,17.2,1.6
		c6.5,0,12.3-0.6,17.4-1.8c5.1-1.2,9.3-2.8,12.7-4.9c3.4-2.1,6.1-4.5,7.9-7.4C1014.2,346.3,1015.1,343.2,1015.1,339.8z M972.6,264.4
		c4.8,0,9-0.7,12.6-2s6.6-3.1,9.1-5.5c2.4-2.4,4.3-5.2,5.5-8.4c1.2-3.3,1.8-6.9,1.8-10.8c0-8.1-2.5-14.6-7.4-19.5
		c-4.9-4.8-12.1-7.3-21.6-7.3c-9.5,0-16.7,2.4-21.6,7.3c-4.9,4.8-7.4,11.3-7.4,19.5c0,3.9,0.6,7.5,1.9,10.7c1.3,3.3,3.1,6.1,5.6,8.5
		c2.4,2.4,5.5,4.2,9.1,5.6C963.7,263.7,967.9,264.4,972.6,264.4z"/>
	<path class="st1" d="M1058.9,332.6v-200h25.8v80c5.8-6,12.2-10.8,19.3-14.4c7-3.6,15.2-5.4,24.4-5.4c7.5,0,14.1,1.3,19.9,3.8
		c5.7,2.5,10.6,6.1,14.4,10.6c3.9,4.6,6.8,10,8.8,16.4c2,6.4,3,13.5,3,21.2v87.7h-25.8v-87.7c0-9.9-2.3-17.7-6.9-23.3
		c-4.6-5.6-11.6-8.3-21-8.3c-7,0-13.4,1.6-19.4,4.9c-6,3.3-11.5,7.7-16.7,13.4v101H1058.9z"/>
	<path class="st1" d="M1246.6,334.7c-11,0-19.5-3.1-25.5-9.2c-6-6.1-9-15-9-26.6v-83H1196c-1.5,0-2.8-0.5-3.8-1.4
		c-1-1-1.5-2.3-1.5-4.1v-10.3l22.4-3l5.8-41.6c0.4-1.4,1-2.6,2-3.5c1-0.9,2.3-1.3,3.9-1.3h13v46.5h39.2V216h-39.2v81.2
		c0,5.5,1.3,9.7,4,12.4c2.7,2.8,6.2,4.1,10.5,4.1c2.4,0,4.6-0.3,6.4-1c1.8-0.6,3.3-1.4,4.6-2.2c1.3-0.8,2.4-1.5,3.3-2.2
		c0.9-0.6,1.8-1,2.5-1c0.8,0,1.5,0.2,2,0.5c0.5,0.4,1,1,1.6,1.9l7.6,12.3c-4.3,4-9.5,7.1-15.4,9.2
		C1259,333.6,1252.9,334.7,1246.6,334.7z"/>
	<path class="st1" d="M1328.2,260.6v72h-27.9V138h58.4c12.4,0,23.2,1.5,32.3,4.3c9.2,2.9,16.8,7,22.8,12.3
		c6,5.3,10.5,11.7,13.5,19.1c3,7.5,4.5,15.8,4.5,24.9s-1.6,17.5-4.7,25c-3.2,7.6-7.8,14.1-14,19.6c-6.1,5.5-13.8,9.8-22.8,12.8
		c-9.1,3-19.6,4.5-31.5,4.5H1328.2z M1328.2,238.3h30.5c7.3,0,13.8-1,19.5-2.9c5.6-1.9,10.4-4.7,14.2-8.1c3.8-3.5,6.7-7.7,8.6-12.5
		s2.9-10.3,2.9-16.1c0-6.1-0.9-11.5-2.8-16.2c-1.9-4.7-4.7-8.8-8.4-12.1c-3.8-3.3-8.5-5.9-14.1-7.7c-5.6-1.8-12.3-2.6-19.9-2.6
		h-30.5V238.3z"/>
	<path class="st1" d="M1539.6,332.6c-2.5,0-4.5-0.4-5.8-1.2c-1.4-0.8-2.4-2.4-3.3-4.7l-2.8-12.3c-3.5,3.3-7,6.2-10.4,8.8
		c-3.4,2.6-7,4.7-10.8,6.4s-7.8,3-12,3.9c-4.2,0.9-9,1.4-14.2,1.4c-5.4,0-10.5-0.8-15.2-2.2c-4.7-1.5-8.8-3.8-12.3-6.9
		s-6.2-6.9-8.3-11.5c-2-4.6-3.1-10-3.1-16.2c0-5.4,1.5-10.6,4.4-15.6c2.9-5,7.7-9.4,14.4-13.4c6.6-3.9,15.3-7.2,26-9.7
		c10.7-2.5,23.9-4,39.5-4.3v-10.3c0-10.4-2.2-18.2-6.7-23.5c-4.5-5.3-11.1-7.9-19.7-7.9c-5.9,0-10.8,0.7-14.7,2.2
		c-3.9,1.5-7.3,3.1-10.2,4.9c-2.8,1.8-5.4,3.4-7.5,4.8c-2.2,1.5-4.3,2.2-6.5,2.2c-1.8,0-3.3-0.5-4.5-1.4c-1.2-1-2.3-2.1-3.2-3.3
		l-4.6-8.4c7.7-7.2,16-12.7,24.9-16.3c8.9-3.6,18.7-5.4,29.5-5.4c7.8,0,14.7,1.3,20.7,3.8c6.1,2.5,11.1,6.1,15.3,10.6
		c4.1,4.6,7.2,10.1,9.4,16.5c2.1,6.4,3.2,13.5,3.2,21.3v87.9H1539.6z M1487.9,316.7c4.1,0,7.8-0.4,11.3-1.2c3.5-0.8,6.7-2,9.8-3.5
		c3-1.5,5.9-3.4,8.6-5.6s5.4-4.7,8.1-7.5v-27.7c-10.8,0.4-20.1,1.2-27.7,2.6c-7.6,1.4-13.8,3.1-18.5,5.3c-4.7,2.2-8.2,4.8-10.4,7.8
		c-2.2,3-3.3,6.4-3.3,10c0,3.5,0.6,6.6,1.7,9.1c1.1,2.5,2.7,4.6,4.7,6.2c2,1.6,4.3,2.8,7,3.5C1482,316.3,1484.9,316.7,1487.9,316.7z
		"/>
	<path class="st1" d="M1623.4,372.7c-0.8,2-1.9,3.5-3.1,4.5c-1.3,1-3.2,1.6-5.8,1.6h-19.1l25.2-54.7l-56.7-129.2h22.4
		c2.2,0,3.9,0.5,5.2,1.6c1.3,1,2.1,2.2,2.6,3.6l35.7,84.1c1.5,4.2,2.8,8.3,3.7,12.3c0.6-2.1,1.3-4.2,2-6.3c0.7-2.1,1.5-4.2,2.3-6.3
		l34.4-83.8c0.5-1.5,1.5-2.8,2.8-3.7c1.4-0.9,2.9-1.4,4.6-1.4h20.5L1623.4,372.7z"/>
</g>
</svg>
